<svg width="1026" height="1132" viewBox="0 0 1026 1132" fill="none" xmlns="http://www.w3.org/2000/svg">
<path d="M539.776 506.191L539.921 506.163L540.028 506.061C551.43 495.213 556.108 482.721 558.509 470.963C559.623 465.507 560.248 460.201 560.826 455.299C560.87 454.925 560.913 454.553 560.957 454.184C561.575 448.963 562.176 444.251 563.305 440.296C564.432 436.345 566.071 433.209 568.724 431.094C571.371 428.983 575.098 427.833 580.515 427.997C591.389 428.325 608.847 433.937 637.358 447.242C694.267 473.799 714.467 509.308 708.914 543.072C703.352 576.894 671.92 609.25 624.897 629.411C586.18 634.373 568.148 659.403 551.626 682.337C548.668 686.444 545.758 690.483 542.787 694.328C532.979 707.018 522.517 717.593 507.462 721.732C492.437 725.862 472.726 723.608 444.358 710.397C418.973 657.286 407.457 618.89 405.634 590.949C403.81 563.005 411.679 545.56 425.031 534.267C438.419 522.943 457.393 517.736 477.923 514.458C487.074 512.997 496.515 511.922 505.889 510.854C507.023 510.725 508.155 510.596 509.286 510.467C519.764 509.267 530.105 508.018 539.776 506.191Z" stroke="url(#paint0_linear_204_817)" stroke-opacity="0.69"/>
<path d="M537.79 479.058L537.934 479.03L538.04 478.928C553.054 464.494 559.278 447.938 562.515 432.358C564.019 425.125 564.879 418.095 565.676 411.593C565.736 411.097 565.797 410.604 565.857 410.115C566.708 403.193 567.534 396.93 569.051 391.664C570.567 386.402 572.756 382.195 576.292 379.339C579.822 376.489 584.762 374.931 591.892 375.107C606.193 375.459 629.085 382.774 666.394 400.184C740.895 434.95 767.201 481.906 759.634 526.802C752.057 571.758 710.487 614.925 648.589 642.021C597.802 648.881 573.986 682.134 552.123 712.66C548.207 718.128 544.354 723.508 540.419 728.633C527.444 745.536 513.604 759.67 493.764 765.286C473.955 770.894 448.054 768.04 410.891 750.725C377.972 680.502 363.143 629.668 360.965 592.612C358.786 555.551 369.261 532.312 386.92 517.198C404.614 502.054 429.592 495 456.562 490.496C468.586 488.488 480.986 486.989 493.295 485.501C494.784 485.321 496.271 485.142 497.757 484.961C511.517 483.289 525.091 481.555 537.79 479.058Z" stroke="url(#paint1_linear_204_817)" stroke-opacity="0.69"/>
<path d="M534.277 432.873L534.42 432.843L534.525 432.741C554.099 413.687 562.313 391.935 566.653 371.477C568.668 361.977 569.849 352.748 570.943 344.206C571.026 343.555 571.109 342.909 571.192 342.266C572.36 333.175 573.491 324.935 575.511 317.994C577.531 311.057 580.422 305.478 585.072 301.667C589.714 297.862 596.174 295.767 605.44 295.931C624.016 296.26 653.658 305.66 701.876 328.161C798.19 373.106 831.937 434.538 821.687 493.635C811.426 552.794 757.048 609.876 676.492 646.026C610.622 655.489 579.467 699.296 550.826 739.567C545.695 746.782 540.644 753.884 535.489 760.655C518.499 782.968 500.392 801.683 474.561 809.254C448.765 816.815 415.152 813.293 367.082 790.889C325.031 699 306.259 632.385 303.779 583.731C301.298 535.072 315.112 504.417 338.201 484.374C361.322 464.303 393.817 454.807 428.837 448.643C444.453 445.894 460.552 443.81 476.53 441.743C478.461 441.493 480.391 441.243 482.317 440.992C500.177 438.669 517.792 436.267 534.277 432.873Z" stroke="url(#paint2_linear_204_817)" stroke-opacity="0.69"/>
<path d="M517.434 400.799L517.576 400.769L517.679 400.666C542.84 375.786 553.563 347.548 559.335 321.018C562.016 308.696 563.63 296.735 565.126 285.656C565.24 284.813 565.353 283.974 565.466 283.141C567.063 271.354 568.604 260.655 571.267 251.627C573.928 242.603 577.695 235.307 583.705 230.288C589.706 225.275 598.008 222.48 609.846 222.584C633.566 222.792 671.288 234.631 732.527 263.208C793.705 291.756 834.889 325.842 859.054 362.371C883.213 398.891 890.377 437.878 883.479 476.285C869.681 553.112 799.585 627.726 696.375 675.506C612.296 688.521 572.078 745.574 535.069 798.074C528.437 807.483 521.907 816.745 515.247 825.581C493.307 854.69 469.966 879.177 436.882 889.302C403.836 899.415 360.956 895.23 299.869 866.753C247.294 748.197 224.118 662.1 221.525 599.074C218.931 536.04 236.924 496.119 266.655 469.847C296.417 443.548 338.011 430.861 382.757 422.465C402.712 418.72 423.274 415.832 443.678 412.966C446.145 412.619 448.61 412.273 451.071 411.926C473.88 408.706 496.372 405.388 517.434 400.799Z" stroke="url(#paint3_linear_204_817)" stroke-opacity="0.69"/>
<path d="M503.874 353.827L504.014 353.794L504.115 353.691C535.266 322.119 548.864 286.611 556.391 253.317C559.888 237.852 562.076 222.857 564.104 208.963C564.258 207.905 564.412 206.854 564.565 205.809C566.729 191.03 568.807 177.599 572.226 166.238C575.645 154.881 580.389 145.649 587.849 139.232C595.3 132.822 605.518 129.169 619.987 129.083C648.972 128.912 694.836 143.053 769.096 177.706C843.291 212.329 892.978 254.251 921.835 299.552C950.686 344.846 958.734 393.545 949.605 441.779C931.345 538.26 844.336 632.957 717.409 694.646C614.544 712.451 564.427 784.544 518.277 850.928C510.005 862.827 501.861 874.543 493.563 885.73C466.237 922.568 437.266 953.671 396.643 966.958C356.064 980.231 303.744 975.759 229.642 941.211C167.585 793.757 140.84 686.389 138.819 607.521C136.797 528.641 159.505 478.3 196.329 444.841C233.179 411.357 284.23 394.717 339.025 383.393C363.463 378.342 388.628 374.353 413.596 370.394C416.614 369.916 419.63 369.438 422.641 368.958C450.553 364.514 478.075 359.952 503.874 353.827Z" stroke="url(#paint4_linear_204_817)" stroke-opacity="0.69"/>
<path d="M546.721 533.055L546.868 533.031L546.978 532.93C555.096 525.499 558.302 516.814 559.865 508.624C560.589 504.825 560.962 501.125 561.306 497.714C561.332 497.454 561.358 497.194 561.384 496.937C561.752 493.3 562.114 490.036 562.866 487.31C563.617 484.589 564.74 482.466 566.586 481.061C568.428 479.658 571.068 478.913 574.972 479.108C582.814 479.5 595.504 483.67 616.323 493.385C657.865 512.771 672.932 537.814 669.442 561.186C665.945 584.609 643.781 606.674 610.112 620.026C582.134 622.916 569.432 640.167 557.834 655.921C555.759 658.739 553.719 661.51 551.633 664.141C544.74 672.839 537.363 680.026 526.588 682.674C515.834 685.318 501.587 683.464 480.904 673.836C461.761 636.417 452.87 609.483 451.133 589.995C449.396 570.508 454.811 558.517 464.241 550.881C473.715 543.211 487.32 539.867 502.115 537.89C508.708 537.01 515.515 536.402 522.278 535.799C523.096 535.726 523.913 535.653 524.729 535.579C532.287 534.9 539.75 534.185 546.721 533.055Z" stroke="url(#paint5_linear_204_817)" stroke-opacity="0.69"/>
<defs>
<linearGradient id="paint0_linear_204_817" x1="478.08" y1="726.685" x2="613.857" y2="435.723" gradientUnits="userSpaceOnUse">
<stop offset="0.475" stop-color="#00E01A"/>
<stop offset="1" stop-color="#008B64"/>
</linearGradient>
<linearGradient id="paint1_linear_204_817" x1="455.134" y1="771.923" x2="635.574" y2="385.25" gradientUnits="userSpaceOnUse">
<stop offset="0.475" stop-color="#00E01A"/>
<stop offset="1" stop-color="#008B64"/>
</linearGradient>
<linearGradient id="paint2_linear_204_817" x1="424.372" y1="818.175" x2="661.981" y2="308.992" gradientUnits="userSpaceOnUse">
<stop offset="0.475" stop-color="#00E01A"/>
<stop offset="1" stop-color="#008B64"/>
</linearGradient>
<linearGradient id="paint3_linear_204_817" x1="372.73" y1="901.305" x2="681.801" y2="238.985" gradientUnits="userSpaceOnUse">
<stop offset="0.475" stop-color="#00E01A"/>
<stop offset="1" stop-color="#008B64"/>
</linearGradient>
<linearGradient id="paint4_linear_204_817" x1="318.072" y1="983.028" x2="707.537" y2="148.428" gradientUnits="userSpaceOnUse">
<stop offset="0.475" stop-color="#00E01A"/>
<stop offset="1" stop-color="#008B64"/>
</linearGradient>
<linearGradient id="paint5_linear_204_817" x1="505.432" y1="685.834" x2="599.22" y2="484.853" gradientUnits="userSpaceOnUse">
<stop offset="0.475" stop-color="#00E01A"/>
<stop offset="1" stop-color="#008B64"/>
</linearGradient>
</defs>
</svg>
