<svg width="3610" height="15481" viewBox="0 0 3610 15481" fill="none" xmlns="http://www.w3.org/2000/svg">
<rect width="2" height="991" transform="matrix(-1 0 0 1 1807.52 14490)" fill="#2C2C2C"/>
<rect width="2" height="983.682" transform="matrix(-1 0 0 1 1531.52 14490)" fill="#2C2C2C"/>
<rect width="2" height="983.682" transform="matrix(-1 0 0 1 1255.52 14490)" fill="#2C2C2C"/>
<rect width="2" height="983.682" transform="matrix(-1 0 0 1 979.52 14490)" fill="#2C2C2C"/>
<rect width="2" height="983.682" transform="matrix(-1 0 0 1 703.52 14490)" fill="#2C2C2C"/>
<rect width="2" height="983.682" transform="matrix(-1 0 0 1 427.52 14490)" fill="#2C2C2C"/>
<rect width="2" height="983.682" transform="matrix(-1 0 0 1 151.52 14490)" fill="#2C2C2C"/>
<rect width="2" height="991" transform="matrix(-1 0 0 1 1669.52 14490)" fill="#2C2C2C"/>
<rect width="2" height="983.682" transform="matrix(-1 0 0 1 1393.52 14490)" fill="#2C2C2C"/>
<rect width="2" height="983.682" transform="matrix(-1 0 0 1 1117.52 14490)" fill="#2C2C2C"/>
<rect width="2" height="983.682" transform="matrix(-1 0 0 1 841.52 14490)" fill="#2C2C2C"/>
<rect width="2" height="983.682" transform="matrix(-1 0 0 1 565.52 14490)" fill="#2C2C2C"/>
<rect width="2" height="983.682" transform="matrix(-1 0 0 1 289.52 14490)" fill="#2C2C2C"/>
<rect width="2" height="983.682" transform="matrix(-1 0 0 1 13.5195 14490)" fill="#2C2C2C"/>
<rect width="2" height="1813" transform="matrix(0 1 1 0 2.51953 14636)" fill="#2C2C2C"/>
<rect width="2" height="1813" transform="matrix(0 1 1 0 2.51953 14912)" fill="#2C2C2C"/>
<rect width="2" height="1813" transform="matrix(0 1 1 0 2.51953 15188)" fill="#2C2C2C"/>
<rect width="2" height="1813" transform="matrix(0 1 1 0 2.51953 15464)" fill="#2C2C2C"/>
<rect width="2" height="1813" transform="matrix(0 1 1 0 2.51953 14498)" fill="#2C2C2C"/>
<rect width="2" height="1813" transform="matrix(0 1 1 0 2.51953 14774)" fill="#2C2C2C"/>
<rect width="2" height="1813" transform="matrix(0 1 1 0 2.51953 15050)" fill="#2C2C2C"/>
<rect width="2" height="1813" transform="matrix(0 1 1 0 2.51953 15326)" fill="#2C2C2C"/>
<rect width="2" height="991" transform="matrix(-1 0 0 1 3601.52 14490)" fill="#2C2C2C"/>
<rect width="2" height="983.682" transform="matrix(-1 0 0 1 3325.52 14490)" fill="#2C2C2C"/>
<rect width="2" height="983.682" transform="matrix(-1 0 0 1 3049.52 14490)" fill="#2C2C2C"/>
<rect width="2" height="983.682" transform="matrix(-1 0 0 1 2773.52 14490)" fill="#2C2C2C"/>
<rect width="2" height="983.682" transform="matrix(-1 0 0 1 2497.52 14490)" fill="#2C2C2C"/>
<rect width="2" height="983.682" transform="matrix(-1 0 0 1 2221.52 14490)" fill="#2C2C2C"/>
<rect width="2" height="983.682" transform="matrix(-1 0 0 1 1945.52 14490)" fill="#2C2C2C"/>
<rect width="2" height="991" transform="matrix(-1 0 0 1 3463.52 14490)" fill="#2C2C2C"/>
<rect width="2" height="983.682" transform="matrix(-1 0 0 1 3187.52 14490)" fill="#2C2C2C"/>
<rect width="2" height="983.682" transform="matrix(-1 0 0 1 2911.52 14490)" fill="#2C2C2C"/>
<rect width="2" height="983.682" transform="matrix(-1 0 0 1 2635.52 14490)" fill="#2C2C2C"/>
<rect width="2" height="983.682" transform="matrix(-1 0 0 1 2359.52 14490)" fill="#2C2C2C"/>
<rect width="2" height="983.682" transform="matrix(-1 0 0 1 2083.52 14490)" fill="#2C2C2C"/>
<rect width="2" height="983.682" transform="matrix(-1 0 0 1 1807.52 14490)" fill="#2C2C2C"/>
<rect width="2" height="1813" transform="matrix(0 1 1 0 1796.52 14636)" fill="#2C2C2C"/>
<rect width="2" height="1813" transform="matrix(0 1 1 0 1796.52 14912)" fill="#2C2C2C"/>
<rect width="2" height="1813" transform="matrix(0 1 1 0 1796.52 15188)" fill="#2C2C2C"/>
<rect width="2" height="1813" transform="matrix(0 1 1 0 1796.52 15464)" fill="#2C2C2C"/>
<rect width="2" height="1813" transform="matrix(0 1 1 0 1796.52 14498)" fill="#2C2C2C"/>
<rect width="2" height="1813" transform="matrix(0 1 1 0 1796.52 14774)" fill="#2C2C2C"/>
<rect width="2" height="1813" transform="matrix(0 1 1 0 1796.52 15050)" fill="#2C2C2C"/>
<rect width="2" height="1813" transform="matrix(0 1 1 0 1796.52 15326)" fill="#2C2C2C"/>
<rect width="2" height="991" transform="matrix(-1 0 0 1 1807.52 13524)" fill="#2C2C2C"/>
<rect width="2" height="983.682" transform="matrix(-1 0 0 1 1531.52 13524)" fill="#2C2C2C"/>
<rect width="2" height="983.682" transform="matrix(-1 0 0 1 1255.52 13524)" fill="#2C2C2C"/>
<rect width="2" height="983.682" transform="matrix(-1 0 0 1 979.52 13524)" fill="#2C2C2C"/>
<rect width="2" height="983.682" transform="matrix(-1 0 0 1 703.52 13524)" fill="#2C2C2C"/>
<rect width="2" height="983.682" transform="matrix(-1 0 0 1 427.52 13524)" fill="#2C2C2C"/>
<rect width="2" height="983.682" transform="matrix(-1 0 0 1 151.52 13524)" fill="#2C2C2C"/>
<rect width="2" height="991" transform="matrix(-1 0 0 1 1669.52 13524)" fill="#2C2C2C"/>
<rect width="2" height="983.682" transform="matrix(-1 0 0 1 1393.52 13524)" fill="#2C2C2C"/>
<rect width="2" height="983.682" transform="matrix(-1 0 0 1 1117.52 13524)" fill="#2C2C2C"/>
<rect width="2" height="983.682" transform="matrix(-1 0 0 1 841.52 13524)" fill="#2C2C2C"/>
<rect width="2" height="983.682" transform="matrix(-1 0 0 1 565.52 13524)" fill="#2C2C2C"/>
<rect width="2" height="983.682" transform="matrix(-1 0 0 1 289.52 13524)" fill="#2C2C2C"/>
<rect width="2" height="983.682" transform="matrix(-1 0 0 1 13.5195 13524)" fill="#2C2C2C"/>
<rect width="2" height="1813" transform="matrix(0 1 1 0 2.51953 13670)" fill="#2C2C2C"/>
<rect width="2" height="1813" transform="matrix(0 1 1 0 2.51953 13946)" fill="#2C2C2C"/>
<rect width="2" height="1813" transform="matrix(0 1 1 0 2.51953 14222)" fill="#2C2C2C"/>
<rect width="2" height="1813" transform="matrix(0 1 1 0 2.51953 14498)" fill="#2C2C2C"/>
<rect width="2" height="1813" transform="matrix(0 1 1 0 2.51953 13532)" fill="#2C2C2C"/>
<rect width="2" height="1813" transform="matrix(0 1 1 0 2.51953 13808)" fill="#2C2C2C"/>
<rect width="2" height="1813" transform="matrix(0 1 1 0 2.51953 14084)" fill="#2C2C2C"/>
<rect width="2" height="1813" transform="matrix(0 1 1 0 2.51953 14360)" fill="#2C2C2C"/>
<rect width="2" height="991" transform="matrix(-1 0 0 1 3601.52 13524)" fill="#2C2C2C"/>
<rect width="2" height="983.682" transform="matrix(-1 0 0 1 3325.52 13524)" fill="#2C2C2C"/>
<rect width="2" height="983.682" transform="matrix(-1 0 0 1 3049.52 13524)" fill="#2C2C2C"/>
<rect width="2" height="983.682" transform="matrix(-1 0 0 1 2773.52 13524)" fill="#2C2C2C"/>
<rect width="2" height="983.682" transform="matrix(-1 0 0 1 2497.52 13524)" fill="#2C2C2C"/>
<rect width="2" height="983.682" transform="matrix(-1 0 0 1 2221.52 13524)" fill="#2C2C2C"/>
<rect width="2" height="983.682" transform="matrix(-1 0 0 1 1945.52 13524)" fill="#2C2C2C"/>
<rect width="2" height="991" transform="matrix(-1 0 0 1 3463.52 13524)" fill="#2C2C2C"/>
<rect width="2" height="983.682" transform="matrix(-1 0 0 1 3187.52 13524)" fill="#2C2C2C"/>
<rect width="2" height="983.682" transform="matrix(-1 0 0 1 2911.52 13524)" fill="#2C2C2C"/>
<rect width="2" height="983.682" transform="matrix(-1 0 0 1 2635.52 13524)" fill="#2C2C2C"/>
<rect width="2" height="983.682" transform="matrix(-1 0 0 1 2359.52 13524)" fill="#2C2C2C"/>
<rect width="2" height="983.682" transform="matrix(-1 0 0 1 2083.52 13524)" fill="#2C2C2C"/>
<rect width="2" height="983.682" transform="matrix(-1 0 0 1 1807.52 13524)" fill="#2C2C2C"/>
<rect width="2" height="1813" transform="matrix(0 1 1 0 1796.52 13670)" fill="#2C2C2C"/>
<rect width="2" height="1813" transform="matrix(0 1 1 0 1796.52 13946)" fill="#2C2C2C"/>
<rect width="2" height="1813" transform="matrix(0 1 1 0 1796.52 14222)" fill="#2C2C2C"/>
<rect width="2" height="1813" transform="matrix(0 1 1 0 1796.52 14498)" fill="#2C2C2C"/>
<rect width="2" height="1813" transform="matrix(0 1 1 0 1796.52 13532)" fill="#2C2C2C"/>
<rect width="2" height="1813" transform="matrix(0 1 1 0 1796.52 13808)" fill="#2C2C2C"/>
<rect width="2" height="1813" transform="matrix(0 1 1 0 1796.52 14084)" fill="#2C2C2C"/>
<rect width="2" height="1813" transform="matrix(0 1 1 0 1796.52 14360)" fill="#2C2C2C"/>
<rect width="2" height="991" transform="matrix(-1 0 0 1 1807.02 12558)" fill="#2C2C2C"/>
<rect width="2" height="983.682" transform="matrix(-1 0 0 1 1531.02 12558)" fill="#2C2C2C"/>
<rect width="2" height="983.682" transform="matrix(-1 0 0 1 1255.02 12558)" fill="#2C2C2C"/>
<rect width="2" height="983.682" transform="matrix(-1 0 0 1 979.02 12558)" fill="#2C2C2C"/>
<rect width="2" height="983.682" transform="matrix(-1 0 0 1 703.02 12558)" fill="#2C2C2C"/>
<rect width="2" height="983.682" transform="matrix(-1 0 0 1 427.02 12558)" fill="#2C2C2C"/>
<rect width="2" height="983.682" transform="matrix(-1 0 0 1 151.02 12558)" fill="#2C2C2C"/>
<rect width="2" height="991" transform="matrix(-1 0 0 1 1669.02 12558)" fill="#2C2C2C"/>
<rect width="2" height="983.682" transform="matrix(-1 0 0 1 1393.02 12558)" fill="#2C2C2C"/>
<rect width="2" height="983.682" transform="matrix(-1 0 0 1 1117.02 12558)" fill="#2C2C2C"/>
<rect width="2" height="983.682" transform="matrix(-1 0 0 1 841.02 12558)" fill="#2C2C2C"/>
<rect width="2" height="983.682" transform="matrix(-1 0 0 1 565.02 12558)" fill="#2C2C2C"/>
<rect width="2" height="983.682" transform="matrix(-1 0 0 1 289.02 12558)" fill="#2C2C2C"/>
<rect width="2" height="983.682" transform="matrix(-1 0 0 1 13.0195 12558)" fill="#2C2C2C"/>
<rect width="2" height="1813" transform="matrix(0 1 1 0 2.01953 12704)" fill="#2C2C2C"/>
<rect width="2" height="1813" transform="matrix(0 1 1 0 2.01953 12980)" fill="#2C2C2C"/>
<rect width="2" height="1813" transform="matrix(0 1 1 0 2.01953 13256)" fill="#2C2C2C"/>
<rect width="2" height="1813" transform="matrix(0 1 1 0 2.01953 13532)" fill="#2C2C2C"/>
<rect width="2" height="1813" transform="matrix(0 1 1 0 2.01953 12566)" fill="#2C2C2C"/>
<rect width="2" height="1813" transform="matrix(0 1 1 0 2.01953 12842)" fill="#2C2C2C"/>
<rect width="2" height="1813" transform="matrix(0 1 1 0 2.01953 13118)" fill="#2C2C2C"/>
<rect width="2" height="1813" transform="matrix(0 1 1 0 2.01953 13394)" fill="#2C2C2C"/>
<rect width="2" height="991" transform="matrix(-1 0 0 1 3601.02 12558)" fill="#2C2C2C"/>
<rect width="2" height="983.682" transform="matrix(-1 0 0 1 3325.02 12558)" fill="#2C2C2C"/>
<rect width="2" height="983.682" transform="matrix(-1 0 0 1 3049.02 12558)" fill="#2C2C2C"/>
<rect width="2" height="983.682" transform="matrix(-1 0 0 1 2773.02 12558)" fill="#2C2C2C"/>
<rect width="2" height="983.682" transform="matrix(-1 0 0 1 2497.02 12558)" fill="#2C2C2C"/>
<rect width="2" height="983.682" transform="matrix(-1 0 0 1 2221.02 12558)" fill="#2C2C2C"/>
<rect width="2" height="983.682" transform="matrix(-1 0 0 1 1945.02 12558)" fill="#2C2C2C"/>
<rect width="2" height="991" transform="matrix(-1 0 0 1 3463.02 12558)" fill="#2C2C2C"/>
<rect width="2" height="983.682" transform="matrix(-1 0 0 1 3187.02 12558)" fill="#2C2C2C"/>
<rect width="2" height="983.682" transform="matrix(-1 0 0 1 2911.02 12558)" fill="#2C2C2C"/>
<rect width="2" height="983.682" transform="matrix(-1 0 0 1 2635.02 12558)" fill="#2C2C2C"/>
<rect width="2" height="983.682" transform="matrix(-1 0 0 1 2359.02 12558)" fill="#2C2C2C"/>
<rect width="2" height="983.682" transform="matrix(-1 0 0 1 2083.02 12558)" fill="#2C2C2C"/>
<rect width="2" height="983.682" transform="matrix(-1 0 0 1 1807.02 12558)" fill="#2C2C2C"/>
<rect width="2" height="1813" transform="matrix(0 1 1 0 1796.02 12704)" fill="#2C2C2C"/>
<rect width="2" height="1813" transform="matrix(0 1 1 0 1796.02 12980)" fill="#2C2C2C"/>
<rect width="2" height="1813" transform="matrix(0 1 1 0 1796.02 13256)" fill="#2C2C2C"/>
<rect width="2" height="1813" transform="matrix(0 1 1 0 1796.02 13532)" fill="#2C2C2C"/>
<rect width="2" height="1813" transform="matrix(0 1 1 0 1796.02 12566)" fill="#2C2C2C"/>
<rect width="2" height="1813" transform="matrix(0 1 1 0 1796.02 12842)" fill="#2C2C2C"/>
<rect width="2" height="1813" transform="matrix(0 1 1 0 1796.02 13118)" fill="#2C2C2C"/>
<rect width="2" height="1813" transform="matrix(0 1 1 0 1796.02 13394)" fill="#2C2C2C"/>
<rect width="2" height="991" transform="matrix(-1 0 0 1 1807.02 11592)" fill="#2C2C2C"/>
<rect width="2" height="983.682" transform="matrix(-1 0 0 1 1531.02 11592)" fill="#2C2C2C"/>
<rect width="2" height="983.682" transform="matrix(-1 0 0 1 1255.02 11592)" fill="#2C2C2C"/>
<rect width="2" height="983.682" transform="matrix(-1 0 0 1 979.02 11592)" fill="#2C2C2C"/>
<rect width="2" height="983.682" transform="matrix(-1 0 0 1 703.02 11592)" fill="#2C2C2C"/>
<rect width="2" height="983.682" transform="matrix(-1 0 0 1 427.02 11592)" fill="#2C2C2C"/>
<rect width="2" height="983.682" transform="matrix(-1 0 0 1 151.02 11592)" fill="#2C2C2C"/>
<rect width="2" height="991" transform="matrix(-1 0 0 1 1669.02 11592)" fill="#2C2C2C"/>
<rect width="2" height="983.682" transform="matrix(-1 0 0 1 1393.02 11592)" fill="#2C2C2C"/>
<rect width="2" height="983.682" transform="matrix(-1 0 0 1 1117.02 11592)" fill="#2C2C2C"/>
<rect width="2" height="983.682" transform="matrix(-1 0 0 1 841.02 11592)" fill="#2C2C2C"/>
<rect width="2" height="983.682" transform="matrix(-1 0 0 1 565.02 11592)" fill="#2C2C2C"/>
<rect width="2" height="983.682" transform="matrix(-1 0 0 1 289.02 11592)" fill="#2C2C2C"/>
<rect width="2" height="983.682" transform="matrix(-1 0 0 1 13.0195 11592)" fill="#2C2C2C"/>
<rect width="2" height="1813" transform="matrix(0 1 1 0 2.01953 11738)" fill="#2C2C2C"/>
<rect width="2" height="1813" transform="matrix(0 1 1 0 2.01953 12014)" fill="#2C2C2C"/>
<rect width="2" height="1813" transform="matrix(0 1 1 0 2.01953 12290)" fill="#2C2C2C"/>
<rect width="2" height="1813" transform="matrix(0 1 1 0 2.01953 12566)" fill="#2C2C2C"/>
<rect width="2" height="1813" transform="matrix(0 1 1 0 2.01953 11600)" fill="#2C2C2C"/>
<rect width="2" height="1813" transform="matrix(0 1 1 0 2.01953 11876)" fill="#2C2C2C"/>
<rect width="2" height="1813" transform="matrix(0 1 1 0 2.01953 12152)" fill="#2C2C2C"/>
<rect width="2" height="1813" transform="matrix(0 1 1 0 2.01953 12428)" fill="#2C2C2C"/>
<rect width="2" height="991" transform="matrix(-1 0 0 1 3601.02 11592)" fill="#2C2C2C"/>
<rect width="2" height="983.682" transform="matrix(-1 0 0 1 3325.02 11592)" fill="#2C2C2C"/>
<rect width="2" height="983.682" transform="matrix(-1 0 0 1 3049.02 11592)" fill="#2C2C2C"/>
<rect width="2" height="983.682" transform="matrix(-1 0 0 1 2773.02 11592)" fill="#2C2C2C"/>
<rect width="2" height="983.682" transform="matrix(-1 0 0 1 2497.02 11592)" fill="#2C2C2C"/>
<rect width="2" height="983.682" transform="matrix(-1 0 0 1 2221.02 11592)" fill="#2C2C2C"/>
<rect width="2" height="983.682" transform="matrix(-1 0 0 1 1945.02 11592)" fill="#2C2C2C"/>
<rect width="2" height="991" transform="matrix(-1 0 0 1 3463.02 11592)" fill="#2C2C2C"/>
<rect width="2" height="983.682" transform="matrix(-1 0 0 1 3187.02 11592)" fill="#2C2C2C"/>
<rect width="2" height="983.682" transform="matrix(-1 0 0 1 2911.02 11592)" fill="#2C2C2C"/>
<rect width="2" height="983.682" transform="matrix(-1 0 0 1 2635.02 11592)" fill="#2C2C2C"/>
<rect width="2" height="983.682" transform="matrix(-1 0 0 1 2359.02 11592)" fill="#2C2C2C"/>
<rect width="2" height="983.682" transform="matrix(-1 0 0 1 2083.02 11592)" fill="#2C2C2C"/>
<rect width="2" height="983.682" transform="matrix(-1 0 0 1 1807.02 11592)" fill="#2C2C2C"/>
<rect width="2" height="1813" transform="matrix(0 1 1 0 1796.02 11738)" fill="#2C2C2C"/>
<rect width="2" height="1813" transform="matrix(0 1 1 0 1796.02 12014)" fill="#2C2C2C"/>
<rect width="2" height="1813" transform="matrix(0 1 1 0 1796.02 12290)" fill="#2C2C2C"/>
<rect width="2" height="1813" transform="matrix(0 1 1 0 1796.02 12566)" fill="#2C2C2C"/>
<rect width="2" height="1813" transform="matrix(0 1 1 0 1796.02 11600)" fill="#2C2C2C"/>
<rect width="2" height="1813" transform="matrix(0 1 1 0 1796.02 11876)" fill="#2C2C2C"/>
<rect width="2" height="1813" transform="matrix(0 1 1 0 1796.02 12152)" fill="#2C2C2C"/>
<rect width="2" height="1813" transform="matrix(0 1 1 0 1796.02 12428)" fill="#2C2C2C"/>
<rect width="2" height="991" transform="matrix(-1 0 0 1 1806.77 10626)" fill="#2C2C2C"/>
<rect width="2" height="983.682" transform="matrix(-1 0 0 1 1530.77 10626)" fill="#2C2C2C"/>
<rect width="2" height="983.682" transform="matrix(-1 0 0 1 1254.77 10626)" fill="#2C2C2C"/>
<rect width="2" height="983.682" transform="matrix(-1 0 0 1 978.77 10626)" fill="#2C2C2C"/>
<rect width="2" height="983.682" transform="matrix(-1 0 0 1 702.77 10626)" fill="#2C2C2C"/>
<rect width="2" height="983.682" transform="matrix(-1 0 0 1 426.77 10626)" fill="#2C2C2C"/>
<rect width="2" height="983.682" transform="matrix(-1 0 0 1 150.77 10626)" fill="#2C2C2C"/>
<rect width="2" height="991" transform="matrix(-1 0 0 1 1668.77 10626)" fill="#2C2C2C"/>
<rect width="2" height="983.682" transform="matrix(-1 0 0 1 1392.77 10626)" fill="#2C2C2C"/>
<rect width="2" height="983.682" transform="matrix(-1 0 0 1 1116.77 10626)" fill="#2C2C2C"/>
<rect width="2" height="983.682" transform="matrix(-1 0 0 1 840.77 10626)" fill="#2C2C2C"/>
<rect width="2" height="983.682" transform="matrix(-1 0 0 1 564.77 10626)" fill="#2C2C2C"/>
<rect width="2" height="983.682" transform="matrix(-1 0 0 1 288.77 10626)" fill="#2C2C2C"/>
<rect width="2" height="983.682" transform="matrix(-1 0 0 1 12.7695 10626)" fill="#2C2C2C"/>
<rect width="2" height="1813" transform="matrix(0 1 1 0 1.76953 10772)" fill="#2C2C2C"/>
<rect width="2" height="1813" transform="matrix(0 1 1 0 1.76953 11048)" fill="#2C2C2C"/>
<rect width="2" height="1813" transform="matrix(0 1 1 0 1.76953 11324)" fill="#2C2C2C"/>
<rect width="2" height="1813" transform="matrix(0 1 1 0 1.76953 11600)" fill="#2C2C2C"/>
<rect width="2" height="1813" transform="matrix(0 1 1 0 1.76953 10634)" fill="#2C2C2C"/>
<rect width="2" height="1813" transform="matrix(0 1 1 0 1.76953 10910)" fill="#2C2C2C"/>
<rect width="2" height="1813" transform="matrix(0 1 1 0 1.76953 11186)" fill="#2C2C2C"/>
<rect width="2" height="1813" transform="matrix(0 1 1 0 1.76953 11462)" fill="#2C2C2C"/>
<rect width="2" height="991" transform="matrix(-1 0 0 1 3600.77 10626)" fill="#2C2C2C"/>
<rect width="2" height="983.682" transform="matrix(-1 0 0 1 3324.77 10626)" fill="#2C2C2C"/>
<rect width="2" height="983.682" transform="matrix(-1 0 0 1 3048.77 10626)" fill="#2C2C2C"/>
<rect width="2" height="983.682" transform="matrix(-1 0 0 1 2772.77 10626)" fill="#2C2C2C"/>
<rect width="2" height="983.682" transform="matrix(-1 0 0 1 2496.77 10626)" fill="#2C2C2C"/>
<rect width="2" height="983.682" transform="matrix(-1 0 0 1 2220.77 10626)" fill="#2C2C2C"/>
<rect width="2" height="983.682" transform="matrix(-1 0 0 1 1944.77 10626)" fill="#2C2C2C"/>
<rect width="2" height="991" transform="matrix(-1 0 0 1 3462.77 10626)" fill="#2C2C2C"/>
<rect width="2" height="983.682" transform="matrix(-1 0 0 1 3186.77 10626)" fill="#2C2C2C"/>
<rect width="2" height="983.682" transform="matrix(-1 0 0 1 2910.77 10626)" fill="#2C2C2C"/>
<rect width="2" height="983.682" transform="matrix(-1 0 0 1 2634.77 10626)" fill="#2C2C2C"/>
<rect width="2" height="983.682" transform="matrix(-1 0 0 1 2358.77 10626)" fill="#2C2C2C"/>
<rect width="2" height="983.682" transform="matrix(-1 0 0 1 2082.77 10626)" fill="#2C2C2C"/>
<rect width="2" height="983.682" transform="matrix(-1 0 0 1 1806.77 10626)" fill="#2C2C2C"/>
<rect width="2" height="1813" transform="matrix(0 1 1 0 1795.77 10772)" fill="#2C2C2C"/>
<rect width="2" height="1813" transform="matrix(0 1 1 0 1795.77 11048)" fill="#2C2C2C"/>
<rect width="2" height="1813" transform="matrix(0 1 1 0 1795.77 11324)" fill="#2C2C2C"/>
<rect width="2" height="1813" transform="matrix(0 1 1 0 1795.77 11600)" fill="#2C2C2C"/>
<rect width="2" height="1813" transform="matrix(0 1 1 0 1795.77 10634)" fill="#2C2C2C"/>
<rect width="2" height="1813" transform="matrix(0 1 1 0 1795.77 10910)" fill="#2C2C2C"/>
<rect width="2" height="1813" transform="matrix(0 1 1 0 1795.77 11186)" fill="#2C2C2C"/>
<rect width="2" height="1813" transform="matrix(0 1 1 0 1795.77 11462)" fill="#2C2C2C"/>
<rect width="2" height="991" transform="matrix(-1 0 0 1 1806.77 9660)" fill="#2C2C2C"/>
<rect width="2" height="983.682" transform="matrix(-1 0 0 1 1530.77 9660)" fill="#2C2C2C"/>
<rect width="2" height="983.682" transform="matrix(-1 0 0 1 1254.77 9660)" fill="#2C2C2C"/>
<rect width="2" height="983.682" transform="matrix(-1 0 0 1 978.77 9660)" fill="#2C2C2C"/>
<rect width="2" height="983.682" transform="matrix(-1 0 0 1 702.77 9660)" fill="#2C2C2C"/>
<rect width="2" height="983.682" transform="matrix(-1 0 0 1 426.77 9660)" fill="#2C2C2C"/>
<rect width="2" height="983.682" transform="matrix(-1 0 0 1 150.77 9660)" fill="#2C2C2C"/>
<rect width="2" height="991" transform="matrix(-1 0 0 1 1668.77 9660)" fill="#2C2C2C"/>
<rect width="2" height="983.682" transform="matrix(-1 0 0 1 1392.77 9660)" fill="#2C2C2C"/>
<rect width="2" height="983.682" transform="matrix(-1 0 0 1 1116.77 9660)" fill="#2C2C2C"/>
<rect width="2" height="983.682" transform="matrix(-1 0 0 1 840.77 9660)" fill="#2C2C2C"/>
<rect width="2" height="983.682" transform="matrix(-1 0 0 1 564.77 9660)" fill="#2C2C2C"/>
<rect width="2" height="983.682" transform="matrix(-1 0 0 1 288.77 9660)" fill="#2C2C2C"/>
<rect width="2" height="983.682" transform="matrix(-1 0 0 1 12.7695 9660)" fill="#2C2C2C"/>
<rect width="2" height="1813" transform="matrix(0 1 1 0 1.76953 9806)" fill="#2C2C2C"/>
<rect width="2" height="1813" transform="matrix(0 1 1 0 1.76953 10082)" fill="#2C2C2C"/>
<rect width="2" height="1813" transform="matrix(0 1 1 0 1.76953 10358)" fill="#2C2C2C"/>
<rect width="2" height="1813" transform="matrix(0 1 1 0 1.76953 10634)" fill="#2C2C2C"/>
<rect width="2" height="1813" transform="matrix(0 1 1 0 1.76953 9668)" fill="#2C2C2C"/>
<rect width="2" height="1813" transform="matrix(0 1 1 0 1.76953 9944)" fill="#2C2C2C"/>
<rect width="2" height="1813" transform="matrix(0 1 1 0 1.76953 10220)" fill="#2C2C2C"/>
<rect width="2" height="1813" transform="matrix(0 1 1 0 1.76953 10496)" fill="#2C2C2C"/>
<rect width="2" height="991" transform="matrix(-1 0 0 1 3600.77 9660)" fill="#2C2C2C"/>
<rect width="2" height="983.682" transform="matrix(-1 0 0 1 3324.77 9660)" fill="#2C2C2C"/>
<rect width="2" height="983.682" transform="matrix(-1 0 0 1 3048.77 9660)" fill="#2C2C2C"/>
<rect width="2" height="983.682" transform="matrix(-1 0 0 1 2772.77 9660)" fill="#2C2C2C"/>
<rect width="2" height="983.682" transform="matrix(-1 0 0 1 2496.77 9660)" fill="#2C2C2C"/>
<rect width="2" height="983.682" transform="matrix(-1 0 0 1 2220.77 9660)" fill="#2C2C2C"/>
<rect width="2" height="983.682" transform="matrix(-1 0 0 1 1944.77 9660)" fill="#2C2C2C"/>
<rect width="2" height="991" transform="matrix(-1 0 0 1 3462.77 9660)" fill="#2C2C2C"/>
<rect width="2" height="983.682" transform="matrix(-1 0 0 1 3186.77 9660)" fill="#2C2C2C"/>
<rect width="2" height="983.682" transform="matrix(-1 0 0 1 2910.77 9660)" fill="#2C2C2C"/>
<rect width="2" height="983.682" transform="matrix(-1 0 0 1 2634.77 9660)" fill="#2C2C2C"/>
<rect width="2" height="983.682" transform="matrix(-1 0 0 1 2358.77 9660)" fill="#2C2C2C"/>
<rect width="2" height="983.682" transform="matrix(-1 0 0 1 2082.77 9660)" fill="#2C2C2C"/>
<rect width="2" height="983.682" transform="matrix(-1 0 0 1 1806.77 9660)" fill="#2C2C2C"/>
<rect width="2" height="1813" transform="matrix(0 1 1 0 1795.77 9806)" fill="#2C2C2C"/>
<rect width="2" height="1813" transform="matrix(0 1 1 0 1795.77 10082)" fill="#2C2C2C"/>
<rect width="2" height="1813" transform="matrix(0 1 1 0 1795.77 10358)" fill="#2C2C2C"/>
<rect width="2" height="1813" transform="matrix(0 1 1 0 1795.77 10634)" fill="#2C2C2C"/>
<rect width="2" height="1813" transform="matrix(0 1 1 0 1795.77 9668)" fill="#2C2C2C"/>
<rect width="2" height="1813" transform="matrix(0 1 1 0 1795.77 9944)" fill="#2C2C2C"/>
<rect width="2" height="1813" transform="matrix(0 1 1 0 1795.77 10220)" fill="#2C2C2C"/>
<rect width="2" height="1813" transform="matrix(0 1 1 0 1795.77 10496)" fill="#2C2C2C"/>
<rect width="2" height="991" transform="matrix(-1 0 0 1 1806.27 8694)" fill="#2C2C2C"/>
<rect width="2" height="983.682" transform="matrix(-1 0 0 1 1530.27 8694)" fill="#2C2C2C"/>
<rect width="2" height="983.682" transform="matrix(-1 0 0 1 1254.27 8694)" fill="#2C2C2C"/>
<rect width="2" height="983.682" transform="matrix(-1 0 0 1 978.27 8694)" fill="#2C2C2C"/>
<rect width="2" height="983.682" transform="matrix(-1 0 0 1 702.27 8694)" fill="#2C2C2C"/>
<rect width="2" height="983.682" transform="matrix(-1 0 0 1 426.27 8694)" fill="#2C2C2C"/>
<rect width="2" height="983.682" transform="matrix(-1 0 0 1 150.27 8694)" fill="#2C2C2C"/>
<rect width="2" height="991" transform="matrix(-1 0 0 1 1668.27 8694)" fill="#2C2C2C"/>
<rect width="2" height="983.682" transform="matrix(-1 0 0 1 1392.27 8694)" fill="#2C2C2C"/>
<rect width="2" height="983.682" transform="matrix(-1 0 0 1 1116.27 8694)" fill="#2C2C2C"/>
<rect width="2" height="983.682" transform="matrix(-1 0 0 1 840.27 8694)" fill="#2C2C2C"/>
<rect width="2" height="983.682" transform="matrix(-1 0 0 1 564.27 8694)" fill="#2C2C2C"/>
<rect width="2" height="983.682" transform="matrix(-1 0 0 1 288.27 8694)" fill="#2C2C2C"/>
<rect width="2" height="983.682" transform="matrix(-1 0 0 1 12.2695 8694)" fill="#2C2C2C"/>
<rect width="2" height="1813" transform="matrix(0 1 1 0 1.26953 8840)" fill="#2C2C2C"/>
<rect width="2" height="1813" transform="matrix(0 1 1 0 1.26953 9116)" fill="#2C2C2C"/>
<rect width="2" height="1813" transform="matrix(0 1 1 0 1.26953 9392)" fill="#2C2C2C"/>
<rect width="2" height="1813" transform="matrix(0 1 1 0 1.26953 9668)" fill="#2C2C2C"/>
<rect width="2" height="1813" transform="matrix(0 1 1 0 1.26953 8702)" fill="#2C2C2C"/>
<rect width="2" height="1813" transform="matrix(0 1 1 0 1.26953 8978)" fill="#2C2C2C"/>
<rect width="2" height="1813" transform="matrix(0 1 1 0 1.26953 9254)" fill="#2C2C2C"/>
<rect width="2" height="1813" transform="matrix(0 1 1 0 1.26953 9530)" fill="#2C2C2C"/>
<rect width="2" height="991" transform="matrix(-1 0 0 1 3600.27 8694)" fill="#2C2C2C"/>
<rect width="2" height="983.682" transform="matrix(-1 0 0 1 3324.27 8694)" fill="#2C2C2C"/>
<rect width="2" height="983.682" transform="matrix(-1 0 0 1 3048.27 8694)" fill="#2C2C2C"/>
<rect width="2" height="983.682" transform="matrix(-1 0 0 1 2772.27 8694)" fill="#2C2C2C"/>
<rect width="2" height="983.682" transform="matrix(-1 0 0 1 2496.27 8694)" fill="#2C2C2C"/>
<rect width="2" height="983.682" transform="matrix(-1 0 0 1 2220.27 8694)" fill="#2C2C2C"/>
<rect width="2" height="983.682" transform="matrix(-1 0 0 1 1944.27 8694)" fill="#2C2C2C"/>
<rect width="2" height="991" transform="matrix(-1 0 0 1 3462.27 8694)" fill="#2C2C2C"/>
<rect width="2" height="983.682" transform="matrix(-1 0 0 1 3186.27 8694)" fill="#2C2C2C"/>
<rect width="2" height="983.682" transform="matrix(-1 0 0 1 2910.27 8694)" fill="#2C2C2C"/>
<rect width="2" height="983.682" transform="matrix(-1 0 0 1 2634.27 8694)" fill="#2C2C2C"/>
<rect width="2" height="983.682" transform="matrix(-1 0 0 1 2358.27 8694)" fill="#2C2C2C"/>
<rect width="2" height="983.682" transform="matrix(-1 0 0 1 2082.27 8694)" fill="#2C2C2C"/>
<rect width="2" height="983.682" transform="matrix(-1 0 0 1 1806.27 8694)" fill="#2C2C2C"/>
<rect width="2" height="1813" transform="matrix(0 1 1 0 1795.27 8840)" fill="#2C2C2C"/>
<rect width="2" height="1813" transform="matrix(0 1 1 0 1795.27 9116)" fill="#2C2C2C"/>
<rect width="2" height="1813" transform="matrix(0 1 1 0 1795.27 9392)" fill="#2C2C2C"/>
<rect width="2" height="1813" transform="matrix(0 1 1 0 1795.27 9668)" fill="#2C2C2C"/>
<rect width="2" height="1813" transform="matrix(0 1 1 0 1795.27 8702)" fill="#2C2C2C"/>
<rect width="2" height="1813" transform="matrix(0 1 1 0 1795.27 8978)" fill="#2C2C2C"/>
<rect width="2" height="1813" transform="matrix(0 1 1 0 1795.27 9254)" fill="#2C2C2C"/>
<rect width="2" height="1813" transform="matrix(0 1 1 0 1795.27 9530)" fill="#2C2C2C"/>
<rect width="2" height="991" transform="matrix(-1 0 0 1 1806.27 7728)" fill="#2C2C2C"/>
<rect width="2" height="983.682" transform="matrix(-1 0 0 1 1530.27 7728)" fill="#2C2C2C"/>
<rect width="2" height="983.682" transform="matrix(-1 0 0 1 1254.27 7728)" fill="#2C2C2C"/>
<rect width="2" height="983.682" transform="matrix(-1 0 0 1 978.27 7728)" fill="#2C2C2C"/>
<rect width="2" height="983.682" transform="matrix(-1 0 0 1 702.27 7728)" fill="#2C2C2C"/>
<rect width="2" height="983.682" transform="matrix(-1 0 0 1 426.27 7728)" fill="#2C2C2C"/>
<rect width="2" height="983.682" transform="matrix(-1 0 0 1 150.27 7728)" fill="#2C2C2C"/>
<rect width="2" height="991" transform="matrix(-1 0 0 1 1668.27 7728)" fill="#2C2C2C"/>
<rect width="2" height="983.682" transform="matrix(-1 0 0 1 1392.27 7728)" fill="#2C2C2C"/>
<rect width="2" height="983.682" transform="matrix(-1 0 0 1 1116.27 7728)" fill="#2C2C2C"/>
<rect width="2" height="983.682" transform="matrix(-1 0 0 1 840.27 7728)" fill="#2C2C2C"/>
<rect width="2" height="983.682" transform="matrix(-1 0 0 1 564.27 7728)" fill="#2C2C2C"/>
<rect width="2" height="983.682" transform="matrix(-1 0 0 1 288.27 7728)" fill="#2C2C2C"/>
<rect width="2" height="983.682" transform="matrix(-1 0 0 1 12.2695 7728)" fill="#2C2C2C"/>
<rect width="2" height="1813" transform="matrix(0 1 1 0 1.26953 7874)" fill="#2C2C2C"/>
<rect width="2" height="1813" transform="matrix(0 1 1 0 1.26953 8150)" fill="#2C2C2C"/>
<rect width="2" height="1813" transform="matrix(0 1 1 0 1.26953 8426)" fill="#2C2C2C"/>
<rect width="2" height="1813" transform="matrix(0 1 1 0 1.26953 8702)" fill="#2C2C2C"/>
<rect width="2" height="1813" transform="matrix(0 1 1 0 1.26953 7736)" fill="#2C2C2C"/>
<rect width="2" height="1813" transform="matrix(0 1 1 0 1.26953 8012)" fill="#2C2C2C"/>
<rect width="2" height="1813" transform="matrix(0 1 1 0 1.26953 8288)" fill="#2C2C2C"/>
<rect width="2" height="1813" transform="matrix(0 1 1 0 1.26953 8564)" fill="#2C2C2C"/>
<rect width="2" height="991" transform="matrix(-1 0 0 1 3600.27 7728)" fill="#2C2C2C"/>
<rect width="2" height="983.682" transform="matrix(-1 0 0 1 3324.27 7728)" fill="#2C2C2C"/>
<rect width="2" height="983.682" transform="matrix(-1 0 0 1 3048.27 7728)" fill="#2C2C2C"/>
<rect width="2" height="983.682" transform="matrix(-1 0 0 1 2772.27 7728)" fill="#2C2C2C"/>
<rect width="2" height="983.682" transform="matrix(-1 0 0 1 2496.27 7728)" fill="#2C2C2C"/>
<rect width="2" height="983.682" transform="matrix(-1 0 0 1 2220.27 7728)" fill="#2C2C2C"/>
<rect width="2" height="983.682" transform="matrix(-1 0 0 1 1944.27 7728)" fill="#2C2C2C"/>
<rect width="2" height="991" transform="matrix(-1 0 0 1 3462.27 7728)" fill="#2C2C2C"/>
<rect width="2" height="983.682" transform="matrix(-1 0 0 1 3186.27 7728)" fill="#2C2C2C"/>
<rect width="2" height="983.682" transform="matrix(-1 0 0 1 2910.27 7728)" fill="#2C2C2C"/>
<rect width="2" height="983.682" transform="matrix(-1 0 0 1 2634.27 7728)" fill="#2C2C2C"/>
<rect width="2" height="983.682" transform="matrix(-1 0 0 1 2358.27 7728)" fill="#2C2C2C"/>
<rect width="2" height="983.682" transform="matrix(-1 0 0 1 2082.27 7728)" fill="#2C2C2C"/>
<rect width="2" height="983.682" transform="matrix(-1 0 0 1 1806.27 7728)" fill="#2C2C2C"/>
<rect width="2" height="1813" transform="matrix(0 1 1 0 1795.27 7874)" fill="#2C2C2C"/>
<rect width="2" height="1813" transform="matrix(0 1 1 0 1795.27 8150)" fill="#2C2C2C"/>
<rect width="2" height="1813" transform="matrix(0 1 1 0 1795.27 8426)" fill="#2C2C2C"/>
<rect width="2" height="1813" transform="matrix(0 1 1 0 1795.27 8702)" fill="#2C2C2C"/>
<rect width="2" height="1813" transform="matrix(0 1 1 0 1795.27 7736)" fill="#2C2C2C"/>
<rect width="2" height="1813" transform="matrix(0 1 1 0 1795.27 8012)" fill="#2C2C2C"/>
<rect width="2" height="1813" transform="matrix(0 1 1 0 1795.27 8288)" fill="#2C2C2C"/>
<rect width="2" height="1813" transform="matrix(0 1 1 0 1795.27 8564)" fill="#2C2C2C"/>
<rect width="2" height="991" transform="matrix(-1 0 0 1 1806.27 6762)" fill="#2C2C2C"/>
<rect width="2" height="983.682" transform="matrix(-1 0 0 1 1530.27 6762)" fill="#2C2C2C"/>
<rect width="2" height="983.682" transform="matrix(-1 0 0 1 1254.27 6762)" fill="#2C2C2C"/>
<rect width="2" height="983.682" transform="matrix(-1 0 0 1 978.27 6762)" fill="#2C2C2C"/>
<rect width="2" height="983.682" transform="matrix(-1 0 0 1 702.27 6762)" fill="#2C2C2C"/>
<rect width="2" height="983.682" transform="matrix(-1 0 0 1 426.27 6762)" fill="#2C2C2C"/>
<rect width="2" height="983.682" transform="matrix(-1 0 0 1 150.27 6762)" fill="#2C2C2C"/>
<rect width="2" height="991" transform="matrix(-1 0 0 1 1668.27 6762)" fill="#2C2C2C"/>
<rect width="2" height="983.682" transform="matrix(-1 0 0 1 1392.27 6762)" fill="#2C2C2C"/>
<rect width="2" height="983.682" transform="matrix(-1 0 0 1 1116.27 6762)" fill="#2C2C2C"/>
<rect width="2" height="983.682" transform="matrix(-1 0 0 1 840.27 6762)" fill="#2C2C2C"/>
<rect width="2" height="983.682" transform="matrix(-1 0 0 1 564.27 6762)" fill="#2C2C2C"/>
<rect width="2" height="983.682" transform="matrix(-1 0 0 1 288.27 6762)" fill="#2C2C2C"/>
<rect width="2" height="983.682" transform="matrix(-1 0 0 1 12.2695 6762)" fill="#2C2C2C"/>
<rect width="2" height="1813" transform="matrix(0 1 1 0 1.26953 6908)" fill="#2C2C2C"/>
<rect width="2" height="1813" transform="matrix(0 1 1 0 1.26953 7184)" fill="#2C2C2C"/>
<rect width="2" height="1813" transform="matrix(0 1 1 0 1.26953 7460)" fill="#2C2C2C"/>
<rect width="2" height="1813" transform="matrix(0 1 1 0 1.26953 7736)" fill="#2C2C2C"/>
<rect width="2" height="1813" transform="matrix(0 1 1 0 1.26953 6770)" fill="#2C2C2C"/>
<rect width="2" height="1813" transform="matrix(0 1 1 0 1.26953 7046)" fill="#2C2C2C"/>
<rect width="2" height="1813" transform="matrix(0 1 1 0 1.26953 7322)" fill="#2C2C2C"/>
<rect width="2" height="1813" transform="matrix(0 1 1 0 1.26953 7598)" fill="#2C2C2C"/>
<rect width="2" height="991" transform="matrix(-1 0 0 1 3600.27 6762)" fill="#2C2C2C"/>
<rect width="2" height="983.682" transform="matrix(-1 0 0 1 3324.27 6762)" fill="#2C2C2C"/>
<rect width="2" height="983.682" transform="matrix(-1 0 0 1 3048.27 6762)" fill="#2C2C2C"/>
<rect width="2" height="983.682" transform="matrix(-1 0 0 1 2772.27 6762)" fill="#2C2C2C"/>
<rect width="2" height="983.682" transform="matrix(-1 0 0 1 2496.27 6762)" fill="#2C2C2C"/>
<rect width="2" height="983.682" transform="matrix(-1 0 0 1 2220.27 6762)" fill="#2C2C2C"/>
<rect width="2" height="983.682" transform="matrix(-1 0 0 1 1944.27 6762)" fill="#2C2C2C"/>
<rect width="2" height="991" transform="matrix(-1 0 0 1 3462.27 6762)" fill="#2C2C2C"/>
<rect width="2" height="983.682" transform="matrix(-1 0 0 1 3186.27 6762)" fill="#2C2C2C"/>
<rect width="2" height="983.682" transform="matrix(-1 0 0 1 2910.27 6762)" fill="#2C2C2C"/>
<rect width="2" height="983.682" transform="matrix(-1 0 0 1 2634.27 6762)" fill="#2C2C2C"/>
<rect width="2" height="983.682" transform="matrix(-1 0 0 1 2358.27 6762)" fill="#2C2C2C"/>
<rect width="2" height="983.682" transform="matrix(-1 0 0 1 2082.27 6762)" fill="#2C2C2C"/>
<rect width="2" height="983.682" transform="matrix(-1 0 0 1 1806.27 6762)" fill="#2C2C2C"/>
<rect width="2" height="1813" transform="matrix(0 1 1 0 1795.27 6908)" fill="#2C2C2C"/>
<rect width="2" height="1813" transform="matrix(0 1 1 0 1795.27 7184)" fill="#2C2C2C"/>
<rect width="2" height="1813" transform="matrix(0 1 1 0 1795.27 7460)" fill="#2C2C2C"/>
<rect width="2" height="1813" transform="matrix(0 1 1 0 1795.27 7736)" fill="#2C2C2C"/>
<rect width="2" height="1813" transform="matrix(0 1 1 0 1795.27 6770)" fill="#2C2C2C"/>
<rect width="2" height="1813" transform="matrix(0 1 1 0 1795.27 7046)" fill="#2C2C2C"/>
<rect width="2" height="1813" transform="matrix(0 1 1 0 1795.27 7322)" fill="#2C2C2C"/>
<rect width="2" height="1813" transform="matrix(0 1 1 0 1795.27 7598)" fill="#2C2C2C"/>
<rect width="2" height="991" transform="matrix(-1 0 0 1 1806.27 5796)" fill="#2C2C2C"/>
<rect width="2" height="983.682" transform="matrix(-1 0 0 1 1530.27 5796)" fill="#2C2C2C"/>
<rect width="2" height="983.682" transform="matrix(-1 0 0 1 1254.27 5796)" fill="#2C2C2C"/>
<rect width="2" height="983.682" transform="matrix(-1 0 0 1 978.27 5796)" fill="#2C2C2C"/>
<rect width="2" height="983.682" transform="matrix(-1 0 0 1 702.27 5796)" fill="#2C2C2C"/>
<rect width="2" height="983.682" transform="matrix(-1 0 0 1 426.27 5796)" fill="#2C2C2C"/>
<rect width="2" height="983.682" transform="matrix(-1 0 0 1 150.27 5796)" fill="#2C2C2C"/>
<rect width="2" height="991" transform="matrix(-1 0 0 1 1668.27 5796)" fill="#2C2C2C"/>
<rect width="2" height="983.682" transform="matrix(-1 0 0 1 1392.27 5796)" fill="#2C2C2C"/>
<rect width="2" height="983.682" transform="matrix(-1 0 0 1 1116.27 5796)" fill="#2C2C2C"/>
<rect width="2" height="983.682" transform="matrix(-1 0 0 1 840.27 5796)" fill="#2C2C2C"/>
<rect width="2" height="983.682" transform="matrix(-1 0 0 1 564.27 5796)" fill="#2C2C2C"/>
<rect width="2" height="983.682" transform="matrix(-1 0 0 1 288.27 5796)" fill="#2C2C2C"/>
<rect width="2" height="983.682" transform="matrix(-1 0 0 1 12.2695 5796)" fill="#2C2C2C"/>
<rect width="2" height="1813" transform="matrix(0 1 1 0 1.26953 5942)" fill="#2C2C2C"/>
<rect width="2" height="1813" transform="matrix(0 1 1 0 1.26953 6218)" fill="#2C2C2C"/>
<rect width="2" height="1813" transform="matrix(0 1 1 0 1.26953 6494)" fill="#2C2C2C"/>
<rect width="2" height="1813" transform="matrix(0 1 1 0 1.26953 6770)" fill="#2C2C2C"/>
<rect width="2" height="1813" transform="matrix(0 1 1 0 1.26953 5804)" fill="#2C2C2C"/>
<rect width="2" height="1813" transform="matrix(0 1 1 0 1.26953 6080)" fill="#2C2C2C"/>
<rect width="2" height="1813" transform="matrix(0 1 1 0 1.26953 6356)" fill="#2C2C2C"/>
<rect width="2" height="1813" transform="matrix(0 1 1 0 1.26953 6632)" fill="#2C2C2C"/>
<rect width="2" height="991" transform="matrix(-1 0 0 1 3600.27 5796)" fill="#2C2C2C"/>
<rect width="2" height="983.682" transform="matrix(-1 0 0 1 3324.27 5796)" fill="#2C2C2C"/>
<rect width="2" height="983.682" transform="matrix(-1 0 0 1 3048.27 5796)" fill="#2C2C2C"/>
<rect width="2" height="983.682" transform="matrix(-1 0 0 1 2772.27 5796)" fill="#2C2C2C"/>
<rect width="2" height="983.682" transform="matrix(-1 0 0 1 2496.27 5796)" fill="#2C2C2C"/>
<rect width="2" height="983.682" transform="matrix(-1 0 0 1 2220.27 5796)" fill="#2C2C2C"/>
<rect width="2" height="983.682" transform="matrix(-1 0 0 1 1944.27 5796)" fill="#2C2C2C"/>
<rect width="2" height="991" transform="matrix(-1 0 0 1 3462.27 5796)" fill="#2C2C2C"/>
<rect width="2" height="983.682" transform="matrix(-1 0 0 1 3186.27 5796)" fill="#2C2C2C"/>
<rect width="2" height="983.682" transform="matrix(-1 0 0 1 2910.27 5796)" fill="#2C2C2C"/>
<rect width="2" height="983.682" transform="matrix(-1 0 0 1 2634.27 5796)" fill="#2C2C2C"/>
<rect width="2" height="983.682" transform="matrix(-1 0 0 1 2358.27 5796)" fill="#2C2C2C"/>
<rect width="2" height="983.682" transform="matrix(-1 0 0 1 2082.27 5796)" fill="#2C2C2C"/>
<rect width="2" height="983.682" transform="matrix(-1 0 0 1 1806.27 5796)" fill="#2C2C2C"/>
<rect width="2" height="1813" transform="matrix(0 1 1 0 1795.27 5942)" fill="#2C2C2C"/>
<rect width="2" height="1813" transform="matrix(0 1 1 0 1795.27 6218)" fill="#2C2C2C"/>
<rect width="2" height="1813" transform="matrix(0 1 1 0 1795.27 6494)" fill="#2C2C2C"/>
<rect width="2" height="1813" transform="matrix(0 1 1 0 1795.27 6770)" fill="#2C2C2C"/>
<rect width="2" height="1813" transform="matrix(0 1 1 0 1795.27 5804)" fill="#2C2C2C"/>
<rect width="2" height="1813" transform="matrix(0 1 1 0 1795.27 6080)" fill="#2C2C2C"/>
<rect width="2" height="1813" transform="matrix(0 1 1 0 1795.27 6356)" fill="#2C2C2C"/>
<rect width="2" height="1813" transform="matrix(0 1 1 0 1795.27 6632)" fill="#2C2C2C"/>
<rect width="2" height="991" transform="matrix(-1 0 0 1 1805.77 4830)" fill="#2C2C2C"/>
<rect width="2" height="983.682" transform="matrix(-1 0 0 1 1529.77 4830)" fill="#2C2C2C"/>
<rect width="2" height="983.682" transform="matrix(-1 0 0 1 1253.77 4830)" fill="#2C2C2C"/>
<rect width="2" height="983.682" transform="matrix(-1 0 0 1 977.77 4830)" fill="#2C2C2C"/>
<rect width="2" height="983.682" transform="matrix(-1 0 0 1 701.77 4830)" fill="#2C2C2C"/>
<rect width="2" height="983.682" transform="matrix(-1 0 0 1 425.77 4830)" fill="#2C2C2C"/>
<rect width="2" height="983.682" transform="matrix(-1 0 0 1 149.77 4830)" fill="#2C2C2C"/>
<rect width="2" height="991" transform="matrix(-1 0 0 1 1667.77 4830)" fill="#2C2C2C"/>
<rect width="2" height="983.682" transform="matrix(-1 0 0 1 1391.77 4830)" fill="#2C2C2C"/>
<rect width="2" height="983.682" transform="matrix(-1 0 0 1 1115.77 4830)" fill="#2C2C2C"/>
<rect width="2" height="983.682" transform="matrix(-1 0 0 1 839.77 4830)" fill="#2C2C2C"/>
<rect width="2" height="983.682" transform="matrix(-1 0 0 1 563.77 4830)" fill="#2C2C2C"/>
<rect width="2" height="983.682" transform="matrix(-1 0 0 1 287.77 4830)" fill="#2C2C2C"/>
<rect width="2" height="983.682" transform="matrix(-1 0 0 1 11.7695 4830)" fill="#2C2C2C"/>
<rect width="2" height="1813" transform="matrix(0 1 1 0 0.769531 4976)" fill="#2C2C2C"/>
<rect width="2" height="1813" transform="matrix(0 1 1 0 0.769531 5252)" fill="#2C2C2C"/>
<rect width="2" height="1813" transform="matrix(0 1 1 0 0.769531 5528)" fill="#2C2C2C"/>
<rect width="2" height="1813" transform="matrix(0 1 1 0 0.769531 5804)" fill="#2C2C2C"/>
<rect width="2" height="1813" transform="matrix(0 1 1 0 0.769531 4838)" fill="#2C2C2C"/>
<rect width="2" height="1813" transform="matrix(0 1 1 0 0.769531 5114)" fill="#2C2C2C"/>
<rect width="2" height="1813" transform="matrix(0 1 1 0 0.769531 5390)" fill="#2C2C2C"/>
<rect width="2" height="1813" transform="matrix(0 1 1 0 0.769531 5666)" fill="#2C2C2C"/>
<rect width="2" height="991" transform="matrix(-1 0 0 1 3599.77 4830)" fill="#2C2C2C"/>
<rect width="2" height="983.682" transform="matrix(-1 0 0 1 3323.77 4830)" fill="#2C2C2C"/>
<rect width="2" height="983.682" transform="matrix(-1 0 0 1 3047.77 4830)" fill="#2C2C2C"/>
<rect width="2" height="983.682" transform="matrix(-1 0 0 1 2771.77 4830)" fill="#2C2C2C"/>
<rect width="2" height="983.682" transform="matrix(-1 0 0 1 2495.77 4830)" fill="#2C2C2C"/>
<rect width="2" height="983.682" transform="matrix(-1 0 0 1 2219.77 4830)" fill="#2C2C2C"/>
<rect width="2" height="983.682" transform="matrix(-1 0 0 1 1943.77 4830)" fill="#2C2C2C"/>
<rect width="2" height="991" transform="matrix(-1 0 0 1 3461.77 4830)" fill="#2C2C2C"/>
<rect width="2" height="983.682" transform="matrix(-1 0 0 1 3185.77 4830)" fill="#2C2C2C"/>
<rect width="2" height="983.682" transform="matrix(-1 0 0 1 2909.77 4830)" fill="#2C2C2C"/>
<rect width="2" height="983.682" transform="matrix(-1 0 0 1 2633.77 4830)" fill="#2C2C2C"/>
<rect width="2" height="983.682" transform="matrix(-1 0 0 1 2357.77 4830)" fill="#2C2C2C"/>
<rect width="2" height="983.682" transform="matrix(-1 0 0 1 2081.77 4830)" fill="#2C2C2C"/>
<rect width="2" height="983.682" transform="matrix(-1 0 0 1 1805.77 4830)" fill="#2C2C2C"/>
<rect width="2" height="1813" transform="matrix(0 1 1 0 1794.77 4976)" fill="#2C2C2C"/>
<rect width="2" height="1813" transform="matrix(0 1 1 0 1794.77 5252)" fill="#2C2C2C"/>
<rect width="2" height="1813" transform="matrix(0 1 1 0 1794.77 5528)" fill="#2C2C2C"/>
<rect width="2" height="1813" transform="matrix(0 1 1 0 1794.77 5804)" fill="#2C2C2C"/>
<rect width="2" height="1813" transform="matrix(0 1 1 0 1794.77 4838)" fill="#2C2C2C"/>
<rect width="2" height="1813" transform="matrix(0 1 1 0 1794.77 5114)" fill="#2C2C2C"/>
<rect width="2" height="1813" transform="matrix(0 1 1 0 1794.77 5390)" fill="#2C2C2C"/>
<rect width="2" height="1813" transform="matrix(0 1 1 0 1794.77 5666)" fill="#2C2C2C"/>
<rect width="2" height="991" transform="matrix(-1 0 0 1 1805.77 3864)" fill="#2C2C2C"/>
<rect width="2" height="983.682" transform="matrix(-1 0 0 1 1529.77 3864)" fill="#2C2C2C"/>
<rect width="2" height="983.682" transform="matrix(-1 0 0 1 1253.77 3864)" fill="#2C2C2C"/>
<rect width="2" height="983.682" transform="matrix(-1 0 0 1 977.77 3864)" fill="#2C2C2C"/>
<rect width="2" height="983.682" transform="matrix(-1 0 0 1 701.77 3864)" fill="#2C2C2C"/>
<rect width="2" height="983.682" transform="matrix(-1 0 0 1 425.77 3864)" fill="#2C2C2C"/>
<rect width="2" height="983.682" transform="matrix(-1 0 0 1 149.77 3864)" fill="#2C2C2C"/>
<rect width="2" height="991" transform="matrix(-1 0 0 1 1667.77 3864)" fill="#2C2C2C"/>
<rect width="2" height="983.682" transform="matrix(-1 0 0 1 1391.77 3864)" fill="#2C2C2C"/>
<rect width="2" height="983.682" transform="matrix(-1 0 0 1 1115.77 3864)" fill="#2C2C2C"/>
<rect width="2" height="983.682" transform="matrix(-1 0 0 1 839.77 3864)" fill="#2C2C2C"/>
<rect width="2" height="983.682" transform="matrix(-1 0 0 1 563.77 3864)" fill="#2C2C2C"/>
<rect width="2" height="983.682" transform="matrix(-1 0 0 1 287.77 3864)" fill="#2C2C2C"/>
<rect width="2" height="983.682" transform="matrix(-1 0 0 1 11.7695 3864)" fill="#2C2C2C"/>
<rect width="2" height="1813" transform="matrix(0 1 1 0 0.769531 4010)" fill="#2C2C2C"/>
<rect width="2" height="1813" transform="matrix(0 1 1 0 0.769531 4286)" fill="#2C2C2C"/>
<rect width="2" height="1813" transform="matrix(0 1 1 0 0.769531 4562)" fill="#2C2C2C"/>
<rect width="2" height="1813" transform="matrix(0 1 1 0 0.769531 4838)" fill="#2C2C2C"/>
<rect width="2" height="1813" transform="matrix(0 1 1 0 0.769531 3872)" fill="#2C2C2C"/>
<rect width="2" height="1813" transform="matrix(0 1 1 0 0.769531 4148)" fill="#2C2C2C"/>
<rect width="2" height="1813" transform="matrix(0 1 1 0 0.769531 4424)" fill="#2C2C2C"/>
<rect width="2" height="1813" transform="matrix(0 1 1 0 0.769531 4700)" fill="#2C2C2C"/>
<rect width="2" height="991" transform="matrix(-1 0 0 1 3599.77 3864)" fill="#2C2C2C"/>
<rect width="2" height="983.682" transform="matrix(-1 0 0 1 3323.77 3864)" fill="#2C2C2C"/>
<rect width="2" height="983.682" transform="matrix(-1 0 0 1 3047.77 3864)" fill="#2C2C2C"/>
<rect width="2" height="983.682" transform="matrix(-1 0 0 1 2771.77 3864)" fill="#2C2C2C"/>
<rect width="2" height="983.682" transform="matrix(-1 0 0 1 2495.77 3864)" fill="#2C2C2C"/>
<rect width="2" height="983.682" transform="matrix(-1 0 0 1 2219.77 3864)" fill="#2C2C2C"/>
<rect width="2" height="983.682" transform="matrix(-1 0 0 1 1943.77 3864)" fill="#2C2C2C"/>
<rect width="2" height="991" transform="matrix(-1 0 0 1 3461.77 3864)" fill="#2C2C2C"/>
<rect width="2" height="983.682" transform="matrix(-1 0 0 1 3185.77 3864)" fill="#2C2C2C"/>
<rect width="2" height="983.682" transform="matrix(-1 0 0 1 2909.77 3864)" fill="#2C2C2C"/>
<rect width="2" height="983.682" transform="matrix(-1 0 0 1 2633.77 3864)" fill="#2C2C2C"/>
<rect width="2" height="983.682" transform="matrix(-1 0 0 1 2357.77 3864)" fill="#2C2C2C"/>
<rect width="2" height="983.682" transform="matrix(-1 0 0 1 2081.77 3864)" fill="#2C2C2C"/>
<rect width="2" height="983.682" transform="matrix(-1 0 0 1 1805.77 3864)" fill="#2C2C2C"/>
<rect width="2" height="1813" transform="matrix(0 1 1 0 1794.77 4010)" fill="#2C2C2C"/>
<rect width="2" height="1813" transform="matrix(0 1 1 0 1794.77 4286)" fill="#2C2C2C"/>
<rect width="2" height="1813" transform="matrix(0 1 1 0 1794.77 4562)" fill="#2C2C2C"/>
<rect width="2" height="1813" transform="matrix(0 1 1 0 1794.77 4838)" fill="#2C2C2C"/>
<rect width="2" height="1813" transform="matrix(0 1 1 0 1794.77 3872)" fill="#2C2C2C"/>
<rect width="2" height="1813" transform="matrix(0 1 1 0 1794.77 4148)" fill="#2C2C2C"/>
<rect width="2" height="1813" transform="matrix(0 1 1 0 1794.77 4424)" fill="#2C2C2C"/>
<rect width="2" height="1813" transform="matrix(0 1 1 0 1794.77 4700)" fill="#2C2C2C"/>
<rect width="2" height="991" transform="matrix(-1 0 0 1 1805.52 2898)" fill="#2C2C2C"/>
<rect width="2" height="983.682" transform="matrix(-1 0 0 1 1529.52 2898)" fill="#2C2C2C"/>
<rect width="2" height="983.682" transform="matrix(-1 0 0 1 1253.52 2898)" fill="#2C2C2C"/>
<rect width="2" height="983.682" transform="matrix(-1 0 0 1 977.52 2898)" fill="#2C2C2C"/>
<rect width="2" height="983.682" transform="matrix(-1 0 0 1 701.52 2898)" fill="#2C2C2C"/>
<rect width="2" height="983.682" transform="matrix(-1 0 0 1 425.52 2898)" fill="#2C2C2C"/>
<rect width="2" height="983.682" transform="matrix(-1 0 0 1 149.52 2898)" fill="#2C2C2C"/>
<rect width="2" height="991" transform="matrix(-1 0 0 1 1667.52 2898)" fill="#2C2C2C"/>
<rect width="2" height="983.682" transform="matrix(-1 0 0 1 1391.52 2898)" fill="#2C2C2C"/>
<rect width="2" height="983.682" transform="matrix(-1 0 0 1 1115.52 2898)" fill="#2C2C2C"/>
<rect width="2" height="983.682" transform="matrix(-1 0 0 1 839.52 2898)" fill="#2C2C2C"/>
<rect width="2" height="983.682" transform="matrix(-1 0 0 1 563.52 2898)" fill="#2C2C2C"/>
<rect width="2" height="983.682" transform="matrix(-1 0 0 1 287.52 2898)" fill="#2C2C2C"/>
<rect width="2" height="983.682" transform="matrix(-1 0 0 1 11.5195 2898)" fill="#2C2C2C"/>
<rect width="2" height="1813" transform="matrix(0 1 1 0 0.519531 3044)" fill="#2C2C2C"/>
<rect width="2" height="1813" transform="matrix(0 1 1 0 0.519531 3320)" fill="#2C2C2C"/>
<rect width="2" height="1813" transform="matrix(0 1 1 0 0.519531 3596)" fill="#2C2C2C"/>
<rect width="2" height="1813" transform="matrix(0 1 1 0 0.519531 3872)" fill="#2C2C2C"/>
<rect width="2" height="1813" transform="matrix(0 1 1 0 0.519531 2906)" fill="#2C2C2C"/>
<rect width="2" height="1813" transform="matrix(0 1 1 0 0.519531 3182)" fill="#2C2C2C"/>
<rect width="2" height="1813" transform="matrix(0 1 1 0 0.519531 3458)" fill="#2C2C2C"/>
<rect width="2" height="1813" transform="matrix(0 1 1 0 0.519531 3734)" fill="#2C2C2C"/>
<rect width="2" height="991" transform="matrix(-1 0 0 1 3599.52 2898)" fill="#2C2C2C"/>
<rect width="2" height="983.682" transform="matrix(-1 0 0 1 3323.52 2898)" fill="#2C2C2C"/>
<rect width="2" height="983.682" transform="matrix(-1 0 0 1 3047.52 2898)" fill="#2C2C2C"/>
<rect width="2" height="983.682" transform="matrix(-1 0 0 1 2771.52 2898)" fill="#2C2C2C"/>
<rect width="2" height="983.682" transform="matrix(-1 0 0 1 2495.52 2898)" fill="#2C2C2C"/>
<rect width="2" height="983.682" transform="matrix(-1 0 0 1 2219.52 2898)" fill="#2C2C2C"/>
<rect width="2" height="983.682" transform="matrix(-1 0 0 1 1943.52 2898)" fill="#2C2C2C"/>
<rect width="2" height="991" transform="matrix(-1 0 0 1 3461.52 2898)" fill="#2C2C2C"/>
<rect width="2" height="983.682" transform="matrix(-1 0 0 1 3185.52 2898)" fill="#2C2C2C"/>
<rect width="2" height="983.682" transform="matrix(-1 0 0 1 2909.52 2898)" fill="#2C2C2C"/>
<rect width="2" height="983.682" transform="matrix(-1 0 0 1 2633.52 2898)" fill="#2C2C2C"/>
<rect width="2" height="983.682" transform="matrix(-1 0 0 1 2357.52 2898)" fill="#2C2C2C"/>
<rect width="2" height="983.682" transform="matrix(-1 0 0 1 2081.52 2898)" fill="#2C2C2C"/>
<rect width="2" height="983.682" transform="matrix(-1 0 0 1 1805.52 2898)" fill="#2C2C2C"/>
<rect width="2" height="1813" transform="matrix(0 1 1 0 1794.52 3044)" fill="#2C2C2C"/>
<rect width="2" height="1813" transform="matrix(0 1 1 0 1794.52 3320)" fill="#2C2C2C"/>
<rect width="2" height="1813" transform="matrix(0 1 1 0 1794.52 3596)" fill="#2C2C2C"/>
<rect width="2" height="1813" transform="matrix(0 1 1 0 1794.52 3872)" fill="#2C2C2C"/>
<rect width="2" height="1813" transform="matrix(0 1 1 0 1794.52 2906)" fill="#2C2C2C"/>
<rect width="2" height="1813" transform="matrix(0 1 1 0 1794.52 3182)" fill="#2C2C2C"/>
<rect width="2" height="1813" transform="matrix(0 1 1 0 1794.52 3458)" fill="#2C2C2C"/>
<rect width="2" height="1813" transform="matrix(0 1 1 0 1794.52 3734)" fill="#2C2C2C"/>
<rect width="2" height="991" transform="matrix(-1 0 0 1 1805.52 1932)" fill="#2C2C2C"/>
<rect width="2" height="983.682" transform="matrix(-1 0 0 1 1529.52 1932)" fill="#2C2C2C"/>
<rect width="2" height="983.682" transform="matrix(-1 0 0 1 1253.52 1932)" fill="#2C2C2C"/>
<rect width="2" height="983.682" transform="matrix(-1 0 0 1 977.52 1932)" fill="#2C2C2C"/>
<rect width="2" height="983.682" transform="matrix(-1 0 0 1 701.52 1932)" fill="#2C2C2C"/>
<rect width="2" height="983.682" transform="matrix(-1 0 0 1 425.52 1932)" fill="#2C2C2C"/>
<rect width="2" height="983.682" transform="matrix(-1 0 0 1 149.52 1932)" fill="#2C2C2C"/>
<rect width="2" height="991" transform="matrix(-1 0 0 1 1667.52 1932)" fill="#2C2C2C"/>
<rect width="2" height="983.682" transform="matrix(-1 0 0 1 1391.52 1932)" fill="#2C2C2C"/>
<rect width="2" height="983.682" transform="matrix(-1 0 0 1 1115.52 1932)" fill="#2C2C2C"/>
<rect width="2" height="983.682" transform="matrix(-1 0 0 1 839.52 1932)" fill="#2C2C2C"/>
<rect width="2" height="983.682" transform="matrix(-1 0 0 1 563.52 1932)" fill="#2C2C2C"/>
<rect width="2" height="983.682" transform="matrix(-1 0 0 1 287.52 1932)" fill="#2C2C2C"/>
<rect width="2" height="983.682" transform="matrix(-1 0 0 1 11.5195 1932)" fill="#2C2C2C"/>
<rect width="2" height="1813" transform="matrix(0 1 1 0 0.519531 2078)" fill="#2C2C2C"/>
<rect width="2" height="1813" transform="matrix(0 1 1 0 0.519531 2354)" fill="#2C2C2C"/>
<rect width="2" height="1813" transform="matrix(0 1 1 0 0.519531 2630)" fill="#2C2C2C"/>
<rect width="2" height="1813" transform="matrix(0 1 1 0 0.519531 2906)" fill="#2C2C2C"/>
<rect width="2" height="1813" transform="matrix(0 1 1 0 0.519531 1940)" fill="#2C2C2C"/>
<rect width="2" height="1813" transform="matrix(0 1 1 0 0.519531 2216)" fill="#2C2C2C"/>
<rect width="2" height="1813" transform="matrix(0 1 1 0 0.519531 2492)" fill="#2C2C2C"/>
<rect width="2" height="1813" transform="matrix(0 1 1 0 0.519531 2768)" fill="#2C2C2C"/>
<rect width="2" height="991" transform="matrix(-1 0 0 1 3599.52 1932)" fill="#2C2C2C"/>
<rect width="2" height="983.682" transform="matrix(-1 0 0 1 3323.52 1932)" fill="#2C2C2C"/>
<rect width="2" height="983.682" transform="matrix(-1 0 0 1 3047.52 1932)" fill="#2C2C2C"/>
<rect width="2" height="983.682" transform="matrix(-1 0 0 1 2771.52 1932)" fill="#2C2C2C"/>
<rect width="2" height="983.682" transform="matrix(-1 0 0 1 2495.52 1932)" fill="#2C2C2C"/>
<rect width="2" height="983.682" transform="matrix(-1 0 0 1 2219.52 1932)" fill="#2C2C2C"/>
<rect width="2" height="983.682" transform="matrix(-1 0 0 1 1943.52 1932)" fill="#2C2C2C"/>
<rect width="2" height="991" transform="matrix(-1 0 0 1 3461.52 1932)" fill="#2C2C2C"/>
<rect width="2" height="983.682" transform="matrix(-1 0 0 1 3185.52 1932)" fill="#2C2C2C"/>
<rect width="2" height="983.682" transform="matrix(-1 0 0 1 2909.52 1932)" fill="#2C2C2C"/>
<rect width="2" height="983.682" transform="matrix(-1 0 0 1 2633.52 1932)" fill="#2C2C2C"/>
<rect width="2" height="983.682" transform="matrix(-1 0 0 1 2357.52 1932)" fill="#2C2C2C"/>
<rect width="2" height="983.682" transform="matrix(-1 0 0 1 2081.52 1932)" fill="#2C2C2C"/>
<rect width="2" height="983.682" transform="matrix(-1 0 0 1 1805.52 1932)" fill="#2C2C2C"/>
<rect width="2" height="1813" transform="matrix(0 1 1 0 1794.52 2078)" fill="#2C2C2C"/>
<rect width="2" height="1813" transform="matrix(0 1 1 0 1794.52 2354)" fill="#2C2C2C"/>
<rect width="2" height="1813" transform="matrix(0 1 1 0 1794.52 2630)" fill="#2C2C2C"/>
<rect width="2" height="1813" transform="matrix(0 1 1 0 1794.52 2906)" fill="#2C2C2C"/>
<rect width="2" height="1813" transform="matrix(0 1 1 0 1794.52 1940)" fill="#2C2C2C"/>
<rect width="2" height="1813" transform="matrix(0 1 1 0 1794.52 2216)" fill="#2C2C2C"/>
<rect width="2" height="1813" transform="matrix(0 1 1 0 1794.52 2492)" fill="#2C2C2C"/>
<rect width="2" height="1813" transform="matrix(0 1 1 0 1794.52 2768)" fill="#2C2C2C"/>
<rect width="2" height="991" transform="matrix(-1 0 0 1 1805.02 966)" fill="#2C2C2C"/>
<rect width="2" height="983.682" transform="matrix(-1 0 0 1 1529.02 966)" fill="#2C2C2C"/>
<rect width="2" height="983.682" transform="matrix(-1 0 0 1 1253.02 966)" fill="#2C2C2C"/>
<rect width="2" height="983.682" transform="matrix(-1 0 0 1 977.02 966)" fill="#2C2C2C"/>
<rect width="2" height="983.682" transform="matrix(-1 0 0 1 701.02 966)" fill="#2C2C2C"/>
<rect width="2" height="983.682" transform="matrix(-1 0 0 1 425.02 966)" fill="#2C2C2C"/>
<rect width="2" height="983.682" transform="matrix(-1 0 0 1 149.02 966)" fill="#2C2C2C"/>
<rect width="2" height="991" transform="matrix(-1 0 0 1 1667.02 966)" fill="#2C2C2C"/>
<rect width="2" height="983.682" transform="matrix(-1 0 0 1 1391.02 966)" fill="#2C2C2C"/>
<rect width="2" height="983.682" transform="matrix(-1 0 0 1 1115.02 966)" fill="#2C2C2C"/>
<rect width="2" height="983.682" transform="matrix(-1 0 0 1 839.02 966)" fill="#2C2C2C"/>
<rect width="2" height="983.682" transform="matrix(-1 0 0 1 563.02 966)" fill="#2C2C2C"/>
<rect width="2" height="983.682" transform="matrix(-1 0 0 1 287.02 966)" fill="#2C2C2C"/>
<rect width="2" height="983.682" transform="matrix(-1 0 0 1 11.0195 966)" fill="#2C2C2C"/>
<rect width="2" height="1813" transform="matrix(0 1 1 0 0.0195312 1112)" fill="#2C2C2C"/>
<rect width="2" height="1813" transform="matrix(0 1 1 0 0.0195312 1388)" fill="#2C2C2C"/>
<rect width="2" height="1813" transform="matrix(0 1 1 0 0.0195312 1664)" fill="#2C2C2C"/>
<rect width="2" height="1813" transform="matrix(0 1 1 0 0.0195312 1940)" fill="#2C2C2C"/>
<rect width="2" height="1813" transform="matrix(0 1 1 0 0.0195312 974)" fill="#2C2C2C"/>
<rect width="2" height="1813" transform="matrix(0 1 1 0 0.0195312 1250)" fill="#2C2C2C"/>
<rect width="2" height="1813" transform="matrix(0 1 1 0 0.0195312 1526)" fill="#2C2C2C"/>
<rect width="2" height="1813" transform="matrix(0 1 1 0 0.0195312 1802)" fill="#2C2C2C"/>
<rect width="2" height="991" transform="matrix(-1 0 0 1 3599.02 966)" fill="#2C2C2C"/>
<rect width="2" height="983.682" transform="matrix(-1 0 0 1 3323.02 966)" fill="#2C2C2C"/>
<rect width="2" height="983.682" transform="matrix(-1 0 0 1 3047.02 966)" fill="#2C2C2C"/>
<rect width="2" height="983.682" transform="matrix(-1 0 0 1 2771.02 966)" fill="#2C2C2C"/>
<rect width="2" height="983.682" transform="matrix(-1 0 0 1 2495.02 966)" fill="#2C2C2C"/>
<rect width="2" height="983.682" transform="matrix(-1 0 0 1 2219.02 966)" fill="#2C2C2C"/>
<rect width="2" height="983.682" transform="matrix(-1 0 0 1 1943.02 966)" fill="#2C2C2C"/>
<rect width="2" height="991" transform="matrix(-1 0 0 1 3461.02 966)" fill="#2C2C2C"/>
<rect width="2" height="983.682" transform="matrix(-1 0 0 1 3185.02 966)" fill="#2C2C2C"/>
<rect width="2" height="983.682" transform="matrix(-1 0 0 1 2909.02 966)" fill="#2C2C2C"/>
<rect width="2" height="983.682" transform="matrix(-1 0 0 1 2633.02 966)" fill="#2C2C2C"/>
<rect width="2" height="983.682" transform="matrix(-1 0 0 1 2357.02 966)" fill="#2C2C2C"/>
<rect width="2" height="983.682" transform="matrix(-1 0 0 1 2081.02 966)" fill="#2C2C2C"/>
<rect width="2" height="983.682" transform="matrix(-1 0 0 1 1805.02 966)" fill="#2C2C2C"/>
<rect width="2" height="1813" transform="matrix(0 1 1 0 1794.02 1112)" fill="#2C2C2C"/>
<rect width="2" height="1813" transform="matrix(0 1 1 0 1794.02 1388)" fill="#2C2C2C"/>
<rect width="2" height="1813" transform="matrix(0 1 1 0 1794.02 1664)" fill="#2C2C2C"/>
<rect width="2" height="1813" transform="matrix(0 1 1 0 1794.02 1940)" fill="#2C2C2C"/>
<rect width="2" height="1813" transform="matrix(0 1 1 0 1794.02 974)" fill="#2C2C2C"/>
<rect width="2" height="1813" transform="matrix(0 1 1 0 1794.02 1250)" fill="#2C2C2C"/>
<rect width="2" height="1813" transform="matrix(0 1 1 0 1794.02 1526)" fill="#2C2C2C"/>
<rect width="2" height="1813" transform="matrix(0 1 1 0 1794.02 1802)" fill="#2C2C2C"/>
<rect width="2" height="991" transform="matrix(-1 0 0 1 1805.02 0)" fill="#2C2C2C"/>
<rect width="2" height="983.682" transform="matrix(-1 0 0 1 1529.02 0)" fill="#2C2C2C"/>
<rect width="2" height="983.682" transform="matrix(-1 0 0 1 1253.02 0)" fill="#2C2C2C"/>
<rect width="2" height="983.682" transform="matrix(-1 0 0 1 977.02 0)" fill="#2C2C2C"/>
<rect width="2" height="983.682" transform="matrix(-1 0 0 1 701.02 0)" fill="#2C2C2C"/>
<rect width="2" height="983.682" transform="matrix(-1 0 0 1 425.02 0)" fill="#2C2C2C"/>
<rect width="2" height="983.682" transform="matrix(-1 0 0 1 149.02 0)" fill="#2C2C2C"/>
<rect width="2" height="991" transform="matrix(-1 0 0 1 1667.02 0)" fill="#2C2C2C"/>
<rect width="2" height="983.682" transform="matrix(-1 0 0 1 1391.02 0)" fill="#2C2C2C"/>
<rect width="2" height="983.682" transform="matrix(-1 0 0 1 1115.02 0)" fill="#2C2C2C"/>
<rect width="2" height="983.682" transform="matrix(-1 0 0 1 839.02 0)" fill="#2C2C2C"/>
<rect width="2" height="983.682" transform="matrix(-1 0 0 1 563.02 0)" fill="#2C2C2C"/>
<rect width="2" height="983.682" transform="matrix(-1 0 0 1 287.02 0)" fill="#2C2C2C"/>
<rect width="2" height="983.682" transform="matrix(-1 0 0 1 11.0195 0)" fill="#2C2C2C"/>
<rect width="2" height="1813" transform="matrix(0 1 1 0 0.0195312 146)" fill="#2C2C2C"/>
<rect width="2" height="1813" transform="matrix(0 1 1 0 0.0195312 422)" fill="#2C2C2C"/>
<rect width="2" height="1813" transform="matrix(0 1 1 0 0.0195312 698)" fill="#2C2C2C"/>
<rect width="2" height="1813" transform="matrix(0 1 1 0 0.0195312 974)" fill="#2C2C2C"/>
<rect width="2" height="1813" transform="matrix(0 1 1 0 0.0195312 8)" fill="#2C2C2C"/>
<rect width="2" height="1813" transform="matrix(0 1 1 0 0.0195312 284)" fill="#2C2C2C"/>
<rect width="2" height="1813" transform="matrix(0 1 1 0 0.0195312 560)" fill="#2C2C2C"/>
<rect width="2" height="1813" transform="matrix(0 1 1 0 0.0195312 836)" fill="#2C2C2C"/>
<rect width="2" height="991" transform="matrix(-1 0 0 1 3599.02 0)" fill="#2C2C2C"/>
<rect width="2" height="983.682" transform="matrix(-1 0 0 1 3323.02 0)" fill="#2C2C2C"/>
<rect width="2" height="983.682" transform="matrix(-1 0 0 1 3047.02 0)" fill="#2C2C2C"/>
<rect width="2" height="983.682" transform="matrix(-1 0 0 1 2771.02 0)" fill="#2C2C2C"/>
<rect width="2" height="983.682" transform="matrix(-1 0 0 1 2495.02 0)" fill="#2C2C2C"/>
<rect width="2" height="983.682" transform="matrix(-1 0 0 1 2219.02 0)" fill="#2C2C2C"/>
<rect width="2" height="983.682" transform="matrix(-1 0 0 1 1943.02 0)" fill="#2C2C2C"/>
<rect width="2" height="991" transform="matrix(-1 0 0 1 3461.02 0)" fill="#2C2C2C"/>
<rect width="2" height="983.682" transform="matrix(-1 0 0 1 3185.02 0)" fill="#2C2C2C"/>
<rect width="2" height="983.682" transform="matrix(-1 0 0 1 2909.02 0)" fill="#2C2C2C"/>
<rect width="2" height="983.682" transform="matrix(-1 0 0 1 2633.02 0)" fill="#2C2C2C"/>
<rect width="2" height="983.682" transform="matrix(-1 0 0 1 2357.02 0)" fill="#2C2C2C"/>
<rect width="2" height="983.682" transform="matrix(-1 0 0 1 2081.02 0)" fill="#2C2C2C"/>
<rect width="2" height="983.682" transform="matrix(-1 0 0 1 1805.02 0)" fill="#2C2C2C"/>
<rect width="2" height="1813" transform="matrix(0 1 1 0 1794.02 146)" fill="#2C2C2C"/>
<rect width="2" height="1813" transform="matrix(0 1 1 0 1794.02 422)" fill="#2C2C2C"/>
<rect width="2" height="1813" transform="matrix(0 1 1 0 1794.02 698)" fill="#2C2C2C"/>
<rect width="2" height="1813" transform="matrix(0 1 1 0 1794.02 974)" fill="#2C2C2C"/>
<rect width="2" height="1813" transform="matrix(0 1 1 0 1794.02 8)" fill="#2C2C2C"/>
<rect width="2" height="1813" transform="matrix(0 1 1 0 1794.02 284)" fill="#2C2C2C"/>
<rect width="2" height="1813" transform="matrix(0 1 1 0 1794.02 560)" fill="#2C2C2C"/>
<rect width="2" height="1813" transform="matrix(0 1 1 0 1794.02 836)" fill="#2C2C2C"/>
</svg>
